:SAMPLES-PER-SECOND 30
:FULLY-SPECIFIED
:DEGREES
312
root  7.39086 39.3507 7.26297 -10.7861 -86.5479 8.22064
RightUpLeg  -16.3516 15.4528 -25.4482
RightLeg  89.5185 0.59171 -9.05728
RightFoot  -7.08024 -0.546852 13.273
RightToes  -5.28226e-011 1.30204e-014 -6.03759e-014
Spine  14.2571 4.53505 9.83201
Spine1  -7.19639 5.60448 -7.13153
HEad  -42.0425 66.0776 -40.7979
LeftShoulder1  0.892008 -2.5353 -7.15482
LeftArm  2.71439 37.9858 -8.5976
LeftForeArm  36.921 7.71454 -12.4018
LeftHand  -0.0907922 4.68956 12.6351
RightShoulder  0.151554 -2.42411 6.5184
RightArm  15.2874 6.18313 46.8156
RightForeArm  169.131 58.8838 163.466
RightHand  -0.20515 -1.14612 -5.55267
LeftUpLeg  -6.97255 -2.74304 7.75946
LeftLeg  15.1687 -10.5463 0.0922829
LeftFoot  -7.50996 0.538521 -14.7051
LeftToes  -2.42178e-010 -1.66495e-011 -2.88221e-011
313
root  7.39749 39.2372 6.91872 -30.5891 -87.7804 28.0806
RightUpLeg  -15.062 11.5084 -23.6597
RightLeg  73.2643 -0.1197 -1.67872
RightFoot  -8.06084 -0.602176 19.0285
RightToes  -5.28226e-011 1.30204e-014 -6.03759e-014
Spine  14.3908 4.01491 8.22705
Spine1  -7.37488 4.83572 -6.6929
HEad  -43.4613 66.3867 -42.336
LeftShoulder1  0.899077 -2.248 -8.12956
LeftArm  -1.78224 38.2996 -16.8539
LeftForeArm  35.5557 7.67897 -11.9528
LeftHand  -0.050787 5.08428 14.5585
RightShoulder  0.216647 -2.05124 7.48214
RightArm  19.8918 -0.885846 48.1966
RightForeArm  168.964 67.1578 156.618
RightHand  -0.195815 -0.464754 -4.57609
LeftUpLeg  -6.77774 0.373761 7.81735
LeftLeg  15.4047 -12.6964 0.0679223
LeftFoot  -7.79706 0.522284 -15.2955
LeftToes  -2.42178e-010 -1.66495e-011 -2.88221e-011
314
root  7.3646 39.2167 6.52937 -78.3362 -88.9549 76.4095
RightUpLeg  -13.5187 6.31489 -21.1005
RightLeg  55.1839 3.40723 4.73576
RightFoot  -9.88072 -0.35961 22.638
RightToes  -5.28226e-011 1.30204e-014 -6.03759e-014
Spine  13.4934 3.5245 6.68762
Spine1  -7.33067 4.11655 -4.68186
HEad  -36.2289 62.0661 -36.3381
LeftShoulder1  0.993308 -2.15139 -10.2557
LeftArm  -6.63095 36.7164 -26.8978
LeftForeArm  33.0232 7.74787 -11.7466
LeftHand  0.215734 6.7041 19.1577
RightShoulder  0.308416 -1.58997 8.79261
RightArm  22.4243 -7.57946 49.507
RightForeArm  145.909 77.3686 130.764
RightHand  -0.339773 0.282542 -6.94206
LeftUpLeg  -6.40873 3.32667 8.56166
LeftLeg  14.2299 -14.3196 0.411558
LeftFoot  -7.3171 0.605035 -15.8912
LeftToes  -2.42178e-010 -1.66495e-011 -2.88221e-011
315
root  7.41824 39.1395 5.88454 -140.132 -88.4748 139.162
RightUpLeg  -11.2142 0.464015 -17.8774
RightLeg  37.9794 8.62085 7.07961
RightFoot  -10.9858 -0.15388 24.6178
RightToes  -5.28226e-011 1.30204e-014 -6.03759e-014
Spine  11.9 3.09294 3.17465
Spine1  -6.77932 3.07417 -0.787087
HEad  -25.1378 48.7458 -24.4588
LeftShoulder1  1.24635 -2.71828 -12.9793
LeftArm  -10.4141 32.7939 -37.6377
LeftForeArm  29.3683 6.21419 -12.2829
LeftHand  0.732765 8.70678 25.7104
RightShoulder  0.456664 -0.959898 10.8167
RightArm  21.7321 -12.8221 50.5376
RightForeArm  64.1645 77.3393 49.8909
RightHand  -0.574704 0.402972 -11.5981
LeftUpLeg  -6.70707 5.16272 9.52846
LeftLeg  13.0425 -14.5068 0.823826
LeftFoot  -6.5824 0.751702 -17.0339
LeftToes  -2.42178e-010 -1.66495e-011 -2.88221e-011
316
root  7.61883 39.0131 4.96749 -129.609 -87.8822 129.051
RightUpLeg  -8.8727 -2.78531 -14.2931
RightLeg  26.7899 8.12539 4.30832
RightFoot  -11.4095 -0.0721942 21.0692
RightToes  -5.28226e-011 1.30204e-014 -6.03759e-014
Spine  11.1771 2.39878 -2.26612
Spine1  -6.03411 1.48332 4.37469
HEad  -19.4365 26.3125 -13.2608
LeftShoulder1  1.54489 -3.50567 -15.2332
LeftArm  -5.96839 26.1963 -47.6639
LeftForeArm  22.2954 -3.08095 -12.7502
LeftHand  0.712121 8.17302 28.907
RightShoulder  0.674586 -0.210763 13.6196
RightArm  17.2915 -16.0926 51.5481
RightForeArm  27.5126 60.6992 17.2362
RightHand  -0.654683 -0.683097 -16.2445
LeftUpLeg  -6.69498 5.91642 10.5151
LeftLeg  11.5597 -15.0525 1.01585
LeftFoot  -5.5912 0.999356 -19.03
LeftToes  -2.42178e-010 -1.66495e-011 -2.88221e-011
